<?xml version="1.0" encoding="UTF-8" standalone="no"?>
<svg xmlns:dc="http://purl.org/dc/elements/1.1/" xmlns:cc="http://creativecommons.org/ns#" xmlns:rdf="http://www.w3.org/1999/02/22-rdf-syntax-ns#" xmlns:svg="http://www.w3.org/2000/svg" xmlns="http://www.w3.org/2000/svg" xmlns:xlink="http://www.w3.org/1999/xlink" version="1.1" width="440" height="236">
  <g transform="translate(-11.24375,0)" id="g01">
    <path d="m 58.7438,94 -5,-8.65 10,0 -5,8.65 z"/>
    <path d="m 58.7438,41 0,45" style="stroke:#000;stroke-width:2px"/>
  </g>
  <rect width="94" height="47" x="0.5" y="0.5" id="rect01" style="fill:#FFF;stroke:#000"/>
  <text x="47.740723" y="28.386963" style="font-size:17px;text-anchor:middle;font-family:Liberation Sans"><tspan x="47.740723" y="28.386963">ftp</tspan></text>
  <use transform="translate(115,0)" xlink:href="#g01"/>
  <use transform="translate(115,0)" xlink:href="#rect01"/>
  <text x="162.52075" y="28.395264" style="font-size:17px;text-anchor:middle;font-family:Liberation Sans"><tspan x="162.52075" y="28.395264">apache</tspan></text>
  <use transform="translate(230,0)" xlink:href="#g01"/>
  <use transform="translate(230,0)" xlink:href="#rect01"/>
  <text x="277.83203" y="28.478271" style="font-size:17px;text-anchor:middle;font-family:Liberation Sans"><tspan x="277.83203" y="28.478271">su</tspan></text>
  <use transform="translate(345,0)" xlink:href="#g01"/>
  <use transform="translate(345,0)" xlink:href="#rect01"/>
  <text x="392.50415" y="28.395264" style="font-size:17px;text-anchor:middle;font-family:Liberation Sans"><tspan x="392.50415" y="28.395264">passwd</tspan></text>
  <use transform="translate(345,94)" xlink:href="#g01"/>
  <use transform="translate(230,94)" xlink:href="#g01"/>
  <use transform="translate(115,94)" xlink:href="#g01"/>
  <use transform="translate(0,94)" xlink:href="#g01"/>
  <rect width="439" height="47" x="0.5" y="94.5" style="fill:#FFF;stroke:#000"/>
  <text x="219.83813" y="122.39526" style="font-size:17px;text-anchor:middle;font-family:Liberation Sans"><tspan x="219.83813" y="122.39526">Pluggable Authentication Module (PAM)</tspan></text>
  <use transform="translate(0,188)" xlink:href="#rect01"/>
  <text x="46.935547" y="218.07617" style="font-size:17px;text-anchor:middle;font-family:Liberation Sans"><tspan x="46.935547" y="218.07617">Unix/Linux</tspan></text>
  <use transform="translate(115,188)" xlink:href="#rect01"/>
  <text x="162.16382" y="217.76489" style="font-size:17px;text-anchor:middle;font-family:Liberation Sans"><tspan x="162.16382" y="217.76489">MD5</tspan></text>
  <use transform="translate(230,188)" xlink:href="#rect01"/>
  <text x="277.10986" y="218.07617" style="font-size:17px;text-anchor:middle;font-family:Liberation Sans"><tspan x="277.10986" y="218.07617">Kerberos</tspan></text>
  <use transform="translate(345,188)" xlink:href="#rect01"/>
  <text x="392.32153" y="206.78711" style="font-size:17px;text-anchor:middle;font-family:Liberation Sans"><tspan x="392.32153" y="206.78711">smart</tspan><tspan x="392.32153" y="228.03711">cards</tspan></text>
</svg>